<?xml version="1.0" encoding="UTF-8" standalone="no"?>
<!DOCTYPE svg PUBLIC "-//W3C//DTD SVG 1.1//EN" "http://www.w3.org/Graphics/SVG/1.1/DTD/svg11.dtd">
<svg width="100%" height="100%" viewBox="0 0 1514 1514" version="1.1" xmlns="http://www.w3.org/2000/svg" xmlns:xlink="http://www.w3.org/1999/xlink" xml:space="preserve" xmlns:serif="http://www.serif.com/" style="fill-rule:evenodd;clip-rule:evenodd;stroke-linejoin:round;stroke-miterlimit:2;">
    <path id="path4573" d="M1275.52,1511.7C1211.38,1505.67 1159.49,1483.47 1090.54,1432.57C1074.83,1420.97 1072.24,1417.21 1071.01,1404.09C1070.47,1398.41 1069.89,935.953 1069.89,935.953L1069.55,480.543C1069.54,470.823 1060.37,455.614 1023.08,455.614C1002.31,455.614 941.847,454.782 928.417,457.053C908.167,460.477 899.244,468.758 899.244,482.807L899.084,617.765L899.363,755.2C899.363,772.225 892.976,766.448 863.751,752.417C853.484,747.488 825.884,734.301 802.417,723.112C611.904,632.273 618.332,635.45 617.308,631.623C615.942,626.518 616.322,438.087 617.765,405.099C621.103,328.802 630.32,288.345 651.482,257.099C677.532,218.636 725.533,195.263 801.751,183.927C885.819,171.425 1042.63,169.81 1135.08,180.495C1244.41,193.131 1300.94,221.857 1329.74,279.419C1343.84,307.617 1351,344.187 1353.82,402.432C1354.74,421.518 1355.07,607.587 1354.81,959.203L1354.88,1483.77C1351.81,1502.48 1332.62,1509.96 1330.01,1510.66C1316.9,1514.17 1291.7,1513.22 1275.52,1511.7L1275.52,1511.7ZM332.417,1386.35C271.159,1384.63 240.353,1379.73 215.751,1367.76C179.116,1349.95 165.416,1318.08 160.438,1239.1C159.568,1225.3 159.097,1009.52 159.105,627.765C159.116,4.893 158.865,31.783 164.774,20.363C168.333,13.484 178.171,5.473 185.866,3.188C220.618,-7.132 295.171,18.692 366.483,65.753C400.184,87.992 429.999,113.94 438.505,128.432L442.417,135.099L443.084,609.765L443.751,1084.43L447.084,1091.1C451.309,1099.55 457.492,1103.07 471.514,1105C484.528,1106.79 575.529,1106.89 586.308,1105.12C598.932,1103.06 605.837,1098.93 609.751,1091.1L613.084,1084.43L613.751,955.099L613.731,828.094C616.646,817.215 618.424,820.08 645.084,832.456C650.951,835.179 666.851,842.503 680.417,848.731C693.984,854.959 715.884,865.024 729.084,871.099C773.698,891.629 821.14,912.964 845.751,924.711C886.626,944.223 896.258,941.872 896.258,961.783C896.258,961.783 896.237,996.192 896.237,1164.49C896.237,1367.64 895.648,1376.7 893.314,1380.27C888.087,1388.25 905.102,1387.79 624.794,1387.55C483.42,1387.43 351.851,1386.89 332.417,1386.35L332.417,1386.35Z" style="fill:white;fill-rule:nonzero;"/>
</svg>
