<?xml version="1.0" encoding="UTF-8" standalone="no"?>
<!-- Created with Inkscape (http://www.inkscape.org/) -->

<svg
   xmlns:dc="http://purl.org/dc/elements/1.1/"
   xmlns:cc="http://creativecommons.org/ns#"
   xmlns:rdf="http://www.w3.org/1999/02/22-rdf-syntax-ns#"
   xmlns:svg="http://www.w3.org/2000/svg"
   xmlns="http://www.w3.org/2000/svg"
   xmlns:sodipodi="http://sodipodi.sourceforge.net/DTD/sodipodi-0.dtd"
   xmlns:inkscape="http://www.inkscape.org/namespaces/inkscape"
   version="1.1"
   id="svg3863"
   width="1514"
   height="1514"
   viewBox="0 0 1514 1514"
   sodipodi:docname="lahacks-logo.svg"
   inkscape:version="0.92.4 5da689c313, 2019-01-14">
  <metadata
     id="metadata3869">
    <rdf:RDF>
      <cc:Work
         rdf:about="">
        <dc:format>image/svg+xml</dc:format>
        <dc:type
           rdf:resource="http://purl.org/dc/dcmitype/StillImage" />
        <dc:title></dc:title>
      </cc:Work>
    </rdf:RDF>
  </metadata>
  <defs
     id="defs3867" />
  <sodipodi:namedview
     pagecolor="#ffffff"
     bordercolor="#666666"
     borderopacity="1"
     objecttolerance="10"
     gridtolerance="10"
     guidetolerance="10"
     inkscape:pageopacity="0"
     inkscape:pageshadow="2"
     inkscape:window-width="2560"
     inkscape:window-height="1421"
     id="namedview3865"
     showgrid="false"
     inkscape:zoom="0.5"
     inkscape:cx="1132.5818"
     inkscape:cy="588.81233"
     inkscape:window-x="0"
     inkscape:window-y="0"
     inkscape:window-maximized="0"
     inkscape:current-layer="svg3863"
     inkscape:snap-bbox="true" />
  <path
     style="fill:#000000;fill-opacity:1;stroke-width:1.33333337"
     d="m 1275.5224,1511.7001 c -64.1435,-6.0313 -116.0319,-28.2265 -184.9834,-79.1267 -15.7132,-11.5994 -18.2951,-15.3646 -19.5306,-28.4824 -0.5349,-5.6792 -1.117,-468.13794 -1.117,-468.13794 l -0.3417,-455.4099 c -0.01,-9.72018 -9.1804,-24.9291 -46.4656,-24.9291 -20.7726,0 -81.23721,-0.83159 -94.6667,1.43899 -20.25026,3.42379 -29.17366,11.70505 -29.17366,25.75381 l -0.15968,134.95834 0.27907,137.4349 c 0,17.02475 -6.38688,11.2476 -35.6124,-2.78306 -10.26667,-4.92885 -37.86667,-18.11628 -61.33333,-29.30543 -190.5138,-90.83888 -184.08558,-87.6618 -185.10966,-91.48869 -1.3662,-5.10532 -0.98554,-193.53563 0.4576,-226.52439 3.33772,-76.29637 12.55463,-116.75375 33.71703,-148 26.04981,-38.46249 74.05077,-61.83588 150.26836,-73.17105 84.06841,-12.50276 240.88397,-14.11764 333.33337,-3.43266 109.3289,12.63586 165.8524,41.36175 194.6511,98.92383 14.1077,28.19808 21.2665,64.76792 24.0809,123.01321 0.9223,19.08651 1.2542,205.15476 0.9932,556.77127 l 0.072,524.56907 v 0 c -3.075,18.7035 -22.2605,26.1873 -24.8752,26.8879 -13.1054,3.5116 -38.3042,2.5613 -54.4839,1.04 z M 332.4174,1386.345 c -61.25855,-1.7114 -92.06435,-6.6177 -116.66667,-18.5809 -36.63469,-17.8139 -50.33452,-49.6818 -55.31264,-128.6656 -0.87,-13.8037 -1.34065,-229.5746 -1.33348,-611.3333 C 159.11631,4.8932897 158.86534,31.782868 164.774,20.3627 168.33297,13.483949 178.17108,5.4729613 185.8661,3.1877823 220.61781,-7.1323631 295.17078,18.692488 366.48309,65.752776 c 33.70059,22.239628 63.51612,48.187584 72.02149,62.679084 l 3.91282,6.66667 0.66666,474.66667 0.66667,474.6666 3.33333,6.6667 c 4.22454,8.4491 10.40819,11.9667 24.42982,13.8973 13.014,1.7918 104.01497,1.8936 114.79436,0.1284 12.62414,-2.0673 19.52885,-6.1984 23.44249,-14.0257 l 3.33333,-6.6667 0.66667,-129.33327 -0.0198,-127.00498 c 2.91501,-10.87894 4.69301,-8.0131 31.35314,4.36206 5.86667,2.72321 21.76667,10.04696 35.33334,16.27503 13.56666,6.22805 35.46666,16.29373 48.66666,22.36814 44.61354,20.53043 92.05593,41.865 116.66667,53.6127 40.87514,19.51136 50.50726,17.16053 50.50726,37.07134 0,0 -0.0211,34.40921 -0.0211,202.70738 0,203.1526 -0.58854,212.2147 -2.92318,215.778 -5.22695,7.9779 11.78851,7.5166 -268.52013,7.2804 -141.37356,-0.119 -272.94283,-0.6606 -292.37616,-1.2036 z"
     id="path4573"
     inkscape:connector-curvature="0"
     sodipodi:nodetypes="ccscssscccsscssssscsccccccsscssccccccsccccsscscscsccc" />
</svg>
